{
    "asset" : {
        "generator" : "Khronos Blender glTF 2.0 I/O",
        "version" : "2.0"
    },
    "scene" : 0,
    "scenes" : [
        {
            "name" : "Scene",
            "nodes" : [
                0
            ]
        }
    ],
    "nodes" : [
        {
            "mesh" : 0,
            "name" : "RetopoKaspinotQ.000"
        }
    ],
    "materials" : [
        {
            "name" : "default",
            "pbrMetallicRoughness" : {
                "baseColorFactor" : [
                    0.800000011920929,
                    0.800000011920929,
                    0.800000011920929,
                    1
                ],
                "metallicFactor" : 0,
                "roughnessFactor" : 0.5
            }
        }
    ],
    "meshes" : [
        {
            "name" : "RetopoKaspinotQ.000",
            "primitives" : [
                {
                    "attributes" : {
                        "POSITION" : 0,
                        "NORMAL" : 1,
                        "TEXCOORD_0" : 2
                    },
                    "indices" : 3,
                    "material" : 0
                }
            ]
        }
    ],
    "accessors" : [
        {
            "bufferView" : 0,
            "componentType" : 5126,
            "count" : 33505,
            "max" : [
                0.08870954811573029,
                0.15190452337265015,
                0.11517216265201569
            ],
            "min" : [
                -0.09542401134967804,
                -0.15465432405471802,
                -0.12133906036615372
            ],
            "type" : "VEC3"
        },
        {
            "bufferView" : 1,
            "componentType" : 5126,
            "count" : 33505,
            "type" : "VEC3"
        },
        {
            "bufferView" : 2,
            "componentType" : 5126,
            "count" : 33505,
            "type" : "VEC2"
        },
        {
            "bufferView" : 3,
            "componentType" : 5123,
            "count" : 198291,
            "type" : "SCALAR"
        }
    ],
    "bufferViews" : [
        {
            "buffer" : 0,
            "byteLength" : 402060,
            "byteOffset" : 0
        },
        {
            "buffer" : 0,
            "byteLength" : 402060,
            "byteOffset" : 402060
        },
        {
            "buffer" : 0,
            "byteLength" : 268040,
            "byteOffset" : 804120
        },
        {
            "buffer" : 0,
            "byteLength" : 396582,
            "byteOffset" : 1072160
        }
    ],
    "buffers" : [
        {
            "byteLength" : 1468744,
            "uri" : "data:application/octet-stream;base64,"
        }
    ]
}
